<?xml version="1.0" encoding="UTF-8"?>
<svg id="Layer_1" xmlns="http://www.w3.org/2000/svg" baseProfile="tiny" version="1.2" viewBox="0 0 595.28 841.89">
  <!-- Generator: Adobe Illustrator 30.1.0, SVG Export Plug-In . SVG Version: 2.1.1 Build 136)  -->
  <path d="M289.13,324.03c0-1.65-.72-3.21-1.96-4.29-1.25-1.08-2.9-1.56-4.53-1.32h0c-3.96.58-7.9,1.39-11.81,2.44-8.85,2.37-17.23,5.88-24.98,10.37-7.77,4.47-15.02,9.99-21.5,16.48h0c-2.85,2.86-5.52,5.86-7.99,8.99h0c-1.02,1.3-1.43,2.97-1.12,4.59.31,1.62,1.31,3.02,2.74,3.85l62.67,36.18c1.75,1.01,3.92,1.01,5.67,0,1.75-1.01,2.83-2.88,2.83-4.91v-72.37Z" fill="none" stroke="#000" stroke-linecap="round" stroke-linejoin="round" stroke-width=".71"/>
  <path d="M378.93,356.69h0c1.02,1.3,1.43,2.97,1.12,4.59-.31,1.62-1.31,3.02-2.74,3.85l-62.67,36.18c-1.75,1.01-3.92,1.01-5.67,0-1.75-1.01-2.83-2.88-2.83-4.91v-72.37c0-1.65.72-3.21,1.96-4.29,1.25-1.08,2.9-1.56,4.53-1.32h0c3.95.58,7.88,1.38,11.78,2.43h.04c8.85,2.38,17.23,5.89,24.98,10.38,7.77,4.47,15.01,9.98,21.49,16.47,2.86,2.86,5.53,5.86,8,9Z" fill="none" stroke="#000" stroke-linecap="round" stroke-linejoin="round" stroke-width=".71"/>
  <path d="M201.34,382.67h0c.61-1.54,1.85-2.73,3.41-3.27,1.56-.54,3.27-.38,4.7.45l62.67,36.18c1.75,1.01,2.83,2.88,2.83,4.91,0,2.03-1.08,3.9-2.83,4.91l-62.67,36.18c-1.43.82-3.14.99-4.7.45-1.56-.54-2.8-1.73-3.41-3.26h0c-1.48-3.72-2.75-7.55-3.8-11.46-2.37-8.85-3.52-17.86-3.51-26.82-.01-8.96,1.14-17.97,3.51-26.82,1.05-3.91,2.32-7.73,3.8-11.45Z" fill="none" stroke="#000" stroke-linecap="round" stroke-linejoin="round" stroke-width=".71"/>
  <path d="M393.93,459.22h0c-.61,1.54-1.85,2.73-3.41,3.27-1.56.54-3.27.38-4.7-.45l-62.67-36.18c-1.75-1.01-2.83-2.88-2.83-4.91,0-2.03,1.08-3.9,2.83-4.91l62.67-36.18c1.43-.82,3.14-.99,4.7-.45,1.56.54,2.8,1.73,3.41,3.26h0c1.48,3.72,2.75,7.54,3.8,11.45v.03s.01.03.01.03c2.37,8.84,3.51,17.84,3.5,26.78.01,8.95-1.14,17.95-3.51,26.79-1.05,3.92-2.32,7.75-3.8,11.47Z" fill="none" stroke="#000" stroke-linecap="round" stroke-linejoin="round" stroke-width=".71"/>
  <path d="M216.34,485.2h0c-1.02-1.3-1.43-2.97-1.12-4.59s1.31-3.02,2.74-3.85l62.67-36.18c1.75-1.01,3.92-1.01,5.67,0s2.83,2.88,2.83,4.91v72.37c0,1.65-.72,3.21-1.96,4.29-1.25,1.08-2.9,1.56-4.53,1.32h0c-3.97-.58-7.92-1.39-11.84-2.44-8.84-2.37-17.21-5.88-24.96-10.36-7.75-4.46-14.98-9.96-21.45-16.43l-.02-.02-.03-.03c-2.86-2.86-5.52-5.86-8-8.99Z" fill="none" stroke="#000" stroke-linecap="round" stroke-linejoin="round" stroke-width=".71"/>
  <path d="M312.64,523.48h0c-1.63.24-3.28-.24-4.53-1.32-1.25-1.08-1.96-2.64-1.96-4.29v-72.37c0-2.03,1.08-3.9,2.83-4.91,1.75-1.01,3.92-1.01,5.67,0l62.67,36.18c1.43.82,2.43,2.23,2.74,3.85s-.1,3.29-1.12,4.59h0c-2.48,3.15-5.16,6.17-8.03,9.04-6.47,6.47-13.7,11.97-21.45,16.43h0c-7.75,4.49-16.13,8-24.97,10.37-3.92,1.05-7.87,1.86-11.83,2.44Z" fill="none" stroke="#000" stroke-linecap="round" stroke-linejoin="round" stroke-width=".71"/>
  <path d="M300.47,420.94c0,1.56-1.27,2.83-2.83,2.83s-2.83-1.27-2.83-2.83,1.27-2.83,2.83-2.83,2.83,1.27,2.83,2.83Z" fill="none" stroke="#000" stroke-linecap="round" stroke-linejoin="round" stroke-width=".71"/>
  <g>
    <path d="M294.13,279.28c.5-.89,1.44-1.43,2.46-1.43h2.1c1.02,0,1.96.55,2.46,1.43,1.02,1.8,2.68,4.77,3.01,5.67.5.86,1.31,5.98,1.76,8.98.19,1.28,1.22,2.26,2.5,2.4h0s4.58.48,4.58.48h0c1.28.14,2.5-.62,2.95-1.83,1.06-2.83,2.92-7.68,3.59-8.41.51-.82,2.75-3.37,4.12-4.92.68-.76,1.71-1.1,2.71-.89h0s2.05.44,2.05.44h0c1,.21,1.8.94,2.11,1.91.63,1.97,1.63,5.22,1.76,6.17.31.94.04,6.13-.15,9.15-.08,1.29.72,2.47,1.95,2.87h0s4.38,1.42,4.38,1.42h0c1.23.4,2.57-.08,3.26-1.17,1.62-2.55,4.45-6.9,5.26-7.48.67-.69,3.39-2.73,5.06-3.96.82-.6,1.9-.72,2.83-.31h0s1.91.85,1.91.85h0c.93.41,1.57,1.3,1.67,2.31.2,2.06.51,5.44.44,6.41.1.99-1.23,6-2.04,8.92-.35,1.24.19,2.56,1.31,3.21h0s3.98,2.3,3.98,2.3h0c1.12.65,2.53.45,3.44-.47,2.12-2.16,5.79-5.82,6.7-6.23.8-.54,3.88-1.97,5.77-2.82.93-.42,2.01-.31,2.83.29h0s1.69,1.23,1.69,1.23h0c.82.6,1.26,1.6,1.15,2.61-.23,2.06-.63,5.43-.9,6.36-.1.99-2.45,5.61-3.85,8.3-.6,1.14-.34,2.55.62,3.41h0s3.42,3.08,3.42,3.08h0c.96.87,2.38.97,3.46.26,2.52-1.67,6.88-4.49,7.85-4.7.89-.36,4.21-1.12,6.23-1.56,1-.22,2.03.11,2.71.87h0s1.4,1.56,1.4,1.56h0c.68.76.9,1.82.58,2.79-.65,1.97-1.75,5.18-2.2,6.03-.31.94-3.57,4.98-5.49,7.31-.82,1-.87,2.42-.11,3.47h0s2.7,3.72,2.7,3.72h0c.76,1.05,2.13,1.45,3.33.97,2.81-1.11,7.66-2.97,8.65-2.97.95-.17,4.35-.22,6.42-.23,1.02,0,1.96.53,2.47,1.42h0s1.05,1.81,1.05,1.81h0c.51.88.51,1.97,0,2.85-1.05,1.79-2.79,4.7-3.41,5.44-.5.86-4.53,4.13-6.89,6.01-1.01.8-1.35,2.19-.83,3.37h0s1.87,4.21,1.87,4.21h0c.53,1.18,1.78,1.86,3.05,1.64,2.98-.5,8.11-1.31,9.08-1.1.96.03,4.3.69,6.32,1.11,1,.2,1.81.93,2.12,1.9h0s.65,1.99.65,1.99h0c.31.97.08,2.03-.6,2.79-1.4,1.53-3.71,4.02-4.47,4.61-.66.74-5.29,3.1-7.99,4.45-1.16.58-1.78,1.86-1.51,3.12h0s.96,4.5.96,4.5h0c.27,1.27,1.36,2.19,2.65,2.24,3.02.13,8.2.41,9.11.81.94.23,4.06,1.57,5.96,2.4.93.41,1.58,1.29,1.68,2.3h0s.22,2.08.22,2.08h0c.11,1.01-.34,2.01-1.17,2.6-1.68,1.21-4.46,3.16-5.33,3.59-.8.58-5.81,1.93-8.74,2.69-1.25.32-2.12,1.45-2.12,2.74h0v4.6h0c0,1.29.87,2.42,2.12,2.74,2.93.76,7.94,2.1,8.74,2.69.87.42,3.64,2.38,5.33,3.59.83.59,1.27,1.59,1.17,2.6h0s-.22,2.08-.22,2.08h0c-.11,1.01-.75,1.89-1.68,2.3-1.9.83-5.02,2.17-5.96,2.4-.91.4-6.09.68-9.11.81-1.29.06-2.38.98-2.65,2.24h0s-.96,4.5-.96,4.5h0c-.27,1.27.35,2.55,1.51,3.13,2.71,1.35,7.33,3.71,7.99,4.45.76.59,3.07,3.08,4.47,4.61.69.75.92,1.82.6,2.78h0s-.65,1.99-.65,1.99h0c-.31.97-1.13,1.7-2.12,1.9-2.03.42-5.36,1.07-6.32,1.11-.97.21-6.1-.6-9.08-1.1-1.27-.21-2.53.46-3.05,1.64h0s-1.87,4.21-1.87,4.21h0c-.53,1.18-.19,2.57.83,3.37,2.37,1.88,6.4,5.15,6.89,6.01.62.74,2.36,3.66,3.41,5.44.52.88.52,1.97,0,2.85h0s-1.05,1.81-1.05,1.81h0c-.51.88-1.45,1.42-2.47,1.42-2.07-.01-5.47-.06-6.42-.23-.99,0-5.84-1.85-8.65-2.97-1.2-.47-2.57-.08-3.33.97h0s-2.7,3.72-2.7,3.72h0c-.76,1.05-.71,2.47.11,3.47,1.93,2.33,5.19,6.37,5.49,7.31.45.85,1.55,4.07,2.2,6.03.32.97.1,2.03-.58,2.79h0s-1.4,1.56-1.4,1.56h0c-.68.76-1.72,1.09-2.71.87-2.02-.44-5.33-1.2-6.23-1.56-.97-.21-5.33-3.03-7.85-4.7-1.08-.71-2.5-.61-3.46.26h0s-3.42,3.08-3.42,3.08h0c-.96.87-1.21,2.27-.62,3.41,1.4,2.68,3.75,7.31,3.85,8.3.27.93.67,4.3.9,6.36.11,1.01-.33,2.01-1.15,2.61h0s-1.69,1.23-1.69,1.23h0c-.82.6-1.91.71-2.83.29-1.89-.86-4.97-2.28-5.77-2.82-.91-.4-4.58-4.07-6.7-6.23-.9-.92-2.32-1.11-3.44-.47h0s-3.98,2.3-3.98,2.3h0c-1.12.65-1.66,1.97-1.31,3.21.81,2.91,2.15,7.93,2.04,8.92.07.96-.24,4.34-.44,6.41-.1,1.01-.74,1.9-1.67,2.31h0s-1.91.85-1.91.85h0c-.93.41-2.01.3-2.83-.31-1.67-1.23-4.39-3.26-5.06-3.96-.8-.58-3.63-4.93-5.26-7.48-.69-1.09-2.03-1.57-3.26-1.17h0s-4.38,1.42-4.38,1.42h0c-1.23.4-2.03,1.58-1.95,2.87.19,3.02.45,8.2.15,9.15-.13.96-1.14,4.2-1.76,6.17-.31.97-1.11,1.7-2.11,1.91h0s-2.05.44-2.05.44h0c-1,.21-2.03-.13-2.71-.89-1.38-1.55-3.61-4.11-4.12-4.92-.66-.74-2.53-5.58-3.59-8.41-.45-1.21-1.66-1.96-2.95-1.83h0s-4.58.48-4.58.48h0c-1.28.14-2.31,1.12-2.5,2.4-.44,2.99-1.26,8.12-1.76,8.98-.33.91-1.99,3.87-3.01,5.67-.5.89-1.44,1.43-2.46,1.43h-2.1c-1.02,0-1.96-.55-2.46-1.43-1.02-1.8-2.68-4.77-3.01-5.67-.5-.86-1.31-5.98-1.76-8.98-.19-1.28-1.22-2.26-2.5-2.4h0s-4.58-.48-4.58-.48h0c-1.28-.14-2.5.62-2.95,1.83-1.06,2.83-2.92,7.68-3.59,8.41-.51.82-2.75,3.37-4.12,4.92-.68.76-1.71,1.1-2.71.89h0s-2.05-.44-2.05-.44h0c-1-.21-1.8-.94-2.11-1.91-.63-1.97-1.63-5.22-1.76-6.17-.31-.94-.04-6.13.15-9.15.08-1.29-.72-2.47-1.95-2.87h0s-4.38-1.42-4.38-1.42h0c-1.23-.4-2.57.08-3.26,1.17-1.62,2.55-4.45,6.9-5.26,7.48-.67.69-3.39,2.73-5.06,3.96-.82.6-1.9.72-2.83.31h0s-1.91-.85-1.91-.85h0c-.93-.41-1.57-1.3-1.67-2.31-.2-2.06-.51-5.44-.44-6.41-.1-.99,1.23-6,2.04-8.92.35-1.24-.19-2.56-1.31-3.21h0s-3.98-2.3-3.98-2.3h0c-1.12-.65-2.53-.45-3.44.47-2.12,2.16-5.79,5.82-6.7,6.23-.8.54-3.88,1.97-5.77,2.82-.93.42-2.01.31-2.83-.29h0s-1.69-1.23-1.69-1.23h0c-.82-.6-1.26-1.6-1.15-2.61.23-2.06.63-5.43.9-6.36.1-.99,2.45-5.61,3.85-8.3.6-1.14.34-2.55-.62-3.41h0s-3.42-3.08-3.42-3.08h0c-.96-.87-2.38-.97-3.46-.26-2.52,1.67-6.88,4.49-7.85,4.7-.89.36-4.21,1.12-6.23,1.56-1,.22-2.03-.11-2.71-.87h0s-1.4-1.56-1.4-1.56h0c-.68-.76-.9-1.82-.58-2.79.65-1.97,1.75-5.18,2.2-6.03.31-.94,3.57-4.98,5.49-7.31.82-1,.87-2.42.11-3.47h0s-2.7-3.72-2.7-3.72h0c-.76-1.05-2.13-1.45-3.33-.97-2.81,1.11-7.66,2.97-8.65,2.97-.95.17-4.35.22-6.42.23-1.02,0-1.96-.53-2.47-1.42h0s-1.05-1.81-1.05-1.81h0c-.51-.88-.51-1.97,0-2.85,1.05-1.79,2.79-4.7,3.41-5.44.5-.86,4.53-4.13,6.89-6.01,1.01-.8,1.35-2.19.83-3.37h0s-1.87-4.21-1.87-4.21h0c-.53-1.18-1.78-1.86-3.05-1.64-2.98.5-8.11,1.31-9.08,1.1-.96-.03-4.3-.69-6.32-1.11-1-.2-1.81-.93-2.12-1.9h0s-.65-1.99-.65-1.99h0c-.31-.97-.08-2.03.6-2.79,1.4-1.53,3.71-4.02,4.47-4.61.66-.74,5.29-3.1,7.99-4.45,1.16-.58,1.78-1.86,1.51-3.12h0s-.96-4.5-.96-4.5h0c-.27-1.27-1.36-2.19-2.65-2.24-3.02-.13-8.2-.41-9.11-.81-.94-.23-4.06-1.57-5.96-2.4-.93-.41-1.58-1.29-1.68-2.3h0s-.22-2.08-.22-2.08h0c-.11-1.01.34-2.01,1.17-2.6,1.68-1.21,4.46-3.16,5.33-3.59.8-.58,5.81-1.93,8.74-2.69,1.25-.32,2.12-1.45,2.12-2.74h0v-4.6h0c0-1.29-.87-2.42-2.12-2.74-2.93-.76-7.94-2.1-8.74-2.69-.87-.42-3.64-2.38-5.33-3.59-.83-.59-1.27-1.59-1.17-2.6h0s.22-2.08.22-2.08h0c.11-1.01.75-1.89,1.68-2.3,1.9-.83,5.02-2.17,5.96-2.4.91-.4,6.09-.68,9.11-.81,1.29-.06,2.38-.98,2.65-2.24h0s.96-4.5.96-4.5h0c.27-1.27-.35-2.55-1.51-3.13-2.71-1.35-7.33-3.71-7.99-4.45-.76-.59-3.07-3.08-4.47-4.61-.69-.75-.92-1.82-.6-2.78h0s.65-1.99.65-1.99h0c.31-.97,1.13-1.7,2.12-1.9,2.03-.42,5.36-1.07,6.32-1.11.97-.21,6.1.6,9.08,1.1,1.27.21,2.53-.46,3.05-1.64h0s1.87-4.21,1.87-4.21h0c.53-1.18.19-2.57-.83-3.37-2.37-1.88-6.4-5.15-6.89-6.01-.62-.74-2.36-3.66-3.41-5.44-.52-.88-.52-1.97,0-2.85h0s1.05-1.81,1.05-1.81h0c.51-.88,1.45-1.42,2.47-1.42,2.07.01,5.47.06,6.42.23.99,0,5.84,1.85,8.65,2.97,1.2.47,2.57.08,3.33-.97h0s2.7-3.72,2.7-3.72h0c.76-1.05.71-2.47-.11-3.47-1.93-2.33-5.19-6.37-5.49-7.31-.45-.85-1.55-4.07-2.2-6.03-.32-.97-.1-2.03.58-2.79h0s1.4-1.56,1.4-1.56h0c.68-.76,1.72-1.09,2.71-.87,2.02.44,5.33,1.2,6.23,1.56.97.21,5.33,3.03,7.85,4.7,1.08.71,2.5.61,3.46-.26h0s3.42-3.08,3.42-3.08h0c.96-.87,1.21-2.27.62-3.41-1.4-2.68-3.75-7.31-3.85-8.3-.27-.93-.67-4.3-.9-6.36-.11-1.01.33-2.01,1.15-2.61h0s1.69-1.23,1.69-1.23h0c.82-.6,1.91-.71,2.83-.29,1.89.86,4.97,2.28,5.77,2.82.91.4,4.58,4.07,6.7,6.23.9.92,2.32,1.11,3.44.47h0s3.98-2.3,3.98-2.3h0c1.12-.65,1.66-1.97,1.31-3.21-.81-2.91-2.15-7.93-2.04-8.92-.07-.96.24-4.34.44-6.41.1-1.01.74-1.9,1.67-2.31h0s1.91-.85,1.91-.85h0c.93-.41,2.01-.3,2.83.31,1.67,1.23,4.39,3.26,5.06,3.96.8.58,3.63,4.93,5.26,7.48.69,1.09,2.03,1.57,3.26,1.17h0s4.38-1.42,4.38-1.42h0c1.23-.4,2.03-1.58,1.95-2.87-.19-3.02-.45-8.2-.15-9.15.13-.96,1.14-4.2,1.76-6.17.31-.97,1.11-1.7,2.11-1.91h0s2.05-.44,2.05-.44h0c1-.21,2.03.13,2.71.89,1.38,1.55,3.61,4.11,4.12,4.92.66.74,2.53,5.58,3.59,8.41.45,1.21,1.66,1.96,2.95,1.83h0s4.58-.48,4.58-.48h0c1.28-.14,2.31-1.12,2.5-2.4.44-2.99,1.26-8.12,1.76-8.98.33-.91,1.99-3.87,3.01-5.67Z" fill="none" stroke="#000" stroke-linecap="round" stroke-linejoin="round" stroke-width=".71"/>
    <path d="M293.81,262.2c.5-.88,1.44-1.43,2.46-1.43h2.73c1.02,0,1.96.55,2.46,1.43,1.13,1.99,3.08,5.46,3.46,6.51.57.98,1.51,6.98,2,10.27.19,1.28,1.22,2.27,2.51,2.4h0s5.69.6,5.69.6h0c1.29.14,2.5-.62,2.95-1.83,1.16-3.12,3.33-8.79,4.09-9.63.59-.94,3.21-3.94,4.73-5.65.68-.76,1.71-1.1,2.7-.89h0s2.67.57,2.67.57h0c1,.21,1.8.94,2.11,1.91.69,2.18,1.87,5.99,2.03,7.08.35,1.08.03,7.14-.18,10.47-.08,1.29.72,2.47,1.95,2.87h0s5.44,1.77,5.44,1.77h0c1.23.4,2.58-.08,3.27-1.18,1.79-2.81,5.09-7.9,6.01-8.57.77-.8,3.96-3.18,5.81-4.54.82-.6,1.9-.72,2.83-.31h0s2.49,1.11,2.49,1.11h0c.93.41,1.57,1.3,1.67,2.31.23,2.28.59,6.24.51,7.35.12,1.13-1.45,6.99-2.35,10.2-.35,1.25.19,2.57,1.31,3.22h0s4.96,2.86,4.96,2.86h0c1.12.65,2.54.45,3.44-.47,2.33-2.38,6.62-6.67,7.66-7.14.92-.62,4.54-2.29,6.62-3.23.93-.42,2.01-.31,2.83.29h0s2.2,1.6,2.2,1.6h0c.82.6,1.26,1.59,1.15,2.6-.25,2.28-.72,6.23-1.03,7.3-.12,1.13-2.88,6.53-4.42,9.49-.6,1.15-.35,2.55.62,3.42h0s4.25,3.83,4.25,3.83h0c.96.87,2.39.97,3.46.25,2.78-1.84,7.86-5.15,8.97-5.39,1.03-.42,4.91-1.29,7.15-1.78.99-.22,2.03.11,2.71.87h0s1.82,2.03,1.82,2.03h0c.68.76.9,1.82.58,2.79-.72,2.17-2,5.94-2.52,6.92-.35,1.08-4.17,5.79-6.3,8.36-.82,1-.87,2.43-.11,3.47h0s3.36,4.63,3.36,4.63h0c.76,1.05,2.13,1.45,3.34.97,3.1-1.23,8.76-3.4,9.9-3.4,1.09-.19,5.07-.24,7.36-.26,1.02,0,1.96.53,2.47,1.42h0s1.36,2.36,1.36,2.36h0c.51.88.51,1.97,0,2.85-1.16,1.98-3.19,5.4-3.91,6.25-.57.98-5.28,4.8-7.9,6.87-1.01.8-1.35,2.19-.83,3.37h0s2.33,5.23,2.33,5.23h0c.53,1.18,1.79,1.86,3.06,1.64,3.29-.56,9.28-1.51,10.39-1.27,1.11.04,5.01.82,7.26,1.28,1,.21,1.81.93,2.12,1.9h0s.84,2.59.84,2.59h0c.31.97.09,2.03-.6,2.78-1.54,1.69-4.25,4.62-5.12,5.3-.76.84-6.17,3.6-9.15,5.08-1.16.58-1.78,1.86-1.51,3.13h0s1.19,5.6,1.19,5.6h0c.27,1.27,1.36,2.19,2.65,2.24,3.33.14,9.39.45,10.43.92,1.08.27,4.74,1.84,6.83,2.76.93.41,1.57,1.29,1.68,2.3h0s.28,2.71.28,2.71h0c.11,1.01-.34,2.01-1.17,2.6-1.86,1.33-5.11,3.63-6.11,4.12-.92.67-6.78,2.23-10.01,3.06-1.25.32-2.13,1.45-2.13,2.75h0v5.72h0c0,1.29.88,2.42,2.13,2.75,3.23.83,9.09,2.4,10.01,3.06,1,.49,4.25,2.78,6.11,4.12.83.59,1.27,1.58,1.17,2.6h0s-.28,2.71-.28,2.71h0c-.11,1.01-.75,1.89-1.68,2.3-2.1.92-5.76,2.49-6.83,2.76-1.04.46-7.1.78-10.43.92-1.29.05-2.38.98-2.65,2.24h0s-1.19,5.6-1.19,5.6h0c-.27,1.27.35,2.55,1.51,3.13,2.99,1.48,8.39,4.23,9.15,5.08.87.68,3.58,3.61,5.12,5.3.69.75.91,1.81.6,2.78h0s-.84,2.59-.84,2.59h0c-.31.97-1.12,1.69-2.12,1.9-2.24.46-6.15,1.24-7.26,1.28-1.11.24-7.1-.72-10.39-1.27-1.28-.22-2.54.46-3.06,1.64h0s-2.33,5.23-2.33,5.23h0c-.53,1.18-.19,2.57.83,3.37,2.61,2.07,7.33,5.89,7.9,6.87.71.85,2.75,4.27,3.91,6.25.51.88.52,1.96,0,2.85h0s-1.36,2.36-1.36,2.36h0c-.51.88-1.45,1.42-2.47,1.42-2.29-.01-6.27-.07-7.36-.26-1.14,0-6.8-2.18-9.9-3.4-1.2-.48-2.58-.08-3.34.97h0s-3.36,4.63-3.36,4.63h0c-.76,1.05-.72,2.48.11,3.47,2.12,2.57,5.95,7.28,6.3,8.36.52.98,1.8,4.75,2.52,6.92.32.97.1,2.03-.58,2.79h0s-1.82,2.03-1.82,2.03h0c-.68.76-1.72,1.09-2.71.87-2.24-.49-6.12-1.37-7.15-1.78-1.11-.24-6.2-3.54-8.97-5.39-1.08-.72-2.5-.61-3.46.25h0s-4.25,3.83-4.25,3.83h0c-.96.87-1.21,2.27-.62,3.42,1.54,2.95,4.3,8.36,4.42,9.49.31,1.07.77,5.02,1.03,7.3.11,1.01-.33,2.01-1.15,2.6h0s-2.2,1.6-2.2,1.6h0c-.82.6-1.9.71-2.83.29-2.09-.94-5.7-2.61-6.62-3.23-1.04-.46-5.32-4.75-7.66-7.14-.91-.92-2.32-1.12-3.44-.47h0s-4.96,2.86-4.96,2.86h0c-1.12.65-1.66,1.97-1.31,3.22.9,3.21,2.47,9.07,2.35,10.2.08,1.11-.29,5.07-.51,7.35-.1,1.01-.74,1.89-1.67,2.31h0s-2.49,1.11-2.49,1.11h0c-.93.41-2.01.3-2.83-.31-1.84-1.36-5.04-3.74-5.81-4.54-.92-.67-4.22-5.76-6.01-8.57-.69-1.09-2.04-1.58-3.27-1.18h0s-5.44,1.77-5.44,1.77h0c-1.23.4-2.03,1.58-1.95,2.87.21,3.33.53,9.38.18,10.47-.15,1.1-1.34,4.9-2.03,7.08-.31.97-1.11,1.7-2.11,1.91h0s-2.67.57-2.67.57h0c-1,.21-2.03-.13-2.7-.89-1.52-1.71-4.15-4.71-4.73-5.65-.76-.84-2.93-6.51-4.09-9.63-.45-1.21-1.67-1.97-2.95-1.83h0s-5.69.6-5.69.6h0c-1.29.14-2.32,1.12-2.51,2.4-.49,3.3-1.43,9.29-2,10.27-.38,1.04-2.33,4.52-3.46,6.51-.5.88-1.44,1.43-2.46,1.43h-2.73c-1.02,0-1.96-.55-2.46-1.43-1.13-1.99-3.08-5.46-3.46-6.51-.57-.98-1.51-6.98-2-10.27-.19-1.28-1.22-2.27-2.51-2.4h0s-5.69-.6-5.69-.6h0c-1.29-.14-2.5.62-2.95,1.83-1.16,3.12-3.33,8.79-4.09,9.63-.59.94-3.21,3.94-4.73,5.65-.68.76-1.71,1.1-2.7.89h0s-2.67-.57-2.67-.57h0c-1-.21-1.8-.94-2.11-1.91-.69-2.18-1.87-5.99-2.03-7.08-.35-1.08-.03-7.14.18-10.47.08-1.29-.72-2.47-1.95-2.87h0s-5.44-1.77-5.44-1.77h0c-1.23-.4-2.58.08-3.27,1.18-1.79,2.81-5.09,7.9-6.01,8.57-.77.8-3.96,3.18-5.81,4.54-.82.6-1.9.72-2.83.31h0s-2.49-1.11-2.49-1.11h0c-.93-.41-1.57-1.3-1.67-2.31-.23-2.28-.59-6.24-.51-7.35-.12-1.13,1.45-6.99,2.35-10.2.35-1.25-.19-2.57-1.31-3.22h0s-4.96-2.86-4.96-2.86h0c-1.12-.65-2.54-.45-3.44.47-2.33,2.38-6.62,6.67-7.66,7.14-.92.62-4.54,2.29-6.62,3.23-.93.42-2.01.31-2.83-.29h0s-2.2-1.6-2.2-1.6h0c-.82-.6-1.26-1.59-1.15-2.6.25-2.28.72-6.23,1.03-7.3.12-1.13,2.88-6.53,4.42-9.49.6-1.15.35-2.55-.62-3.42h0s-4.25-3.83-4.25-3.83h0c-.96-.87-2.39-.97-3.46-.25-2.78,1.84-7.86,5.15-8.97,5.39-1.03.42-4.91,1.29-7.15,1.78-.99.22-2.03-.11-2.71-.87h0s-1.82-2.03-1.82-2.03h0c-.68-.76-.9-1.82-.58-2.79.72-2.17,2-5.94,2.52-6.92.35-1.08,4.17-5.79,6.3-8.36.82-1,.87-2.43.11-3.47h0s-3.36-4.63-3.36-4.63h0c-.76-1.05-2.13-1.45-3.34-.97-3.1,1.23-8.76,3.4-9.9,3.4-1.09.19-5.07.24-7.36.26-1.02,0-1.96-.53-2.47-1.42h0s-1.36-2.36-1.36-2.36h0c-.51-.88-.51-1.97,0-2.85,1.16-1.98,3.19-5.4,3.91-6.25.57-.98,5.28-4.8,7.9-6.87,1.01-.8,1.35-2.19.83-3.37h0s-2.33-5.23-2.33-5.23h0c-.53-1.18-1.79-1.86-3.06-1.64-3.29.56-9.28,1.51-10.39,1.27-1.11-.04-5.01-.82-7.26-1.28-1-.21-1.81-.93-2.12-1.9h0s-.84-2.59-.84-2.59h0c-.31-.97-.09-2.03.6-2.78,1.54-1.69,4.25-4.62,5.12-5.3.76-.84,6.17-3.6,9.15-5.08,1.16-.58,1.78-1.86,1.51-3.13h0s-1.19-5.6-1.19-5.6h0c-.27-1.27-1.36-2.19-2.65-2.24-3.33-.14-9.39-.45-10.43-.92-1.08-.27-4.74-1.84-6.83-2.76-.93-.41-1.57-1.29-1.68-2.3h0s-.28-2.71-.28-2.71h0c-.11-1.01.34-2.01,1.17-2.6,1.86-1.33,5.11-3.63,6.11-4.12.92-.67,6.78-2.23,10.01-3.06,1.25-.32,2.13-1.45,2.13-2.75h0v-5.72h0c0-1.29-.88-2.42-2.13-2.75-3.23-.83-9.09-2.4-10.01-3.06-1-.49-4.25-2.78-6.11-4.12-.83-.59-1.27-1.58-1.17-2.6h0s.28-2.71.28-2.71h0c.11-1.01.75-1.89,1.68-2.3,2.1-.92,5.76-2.49,6.83-2.76,1.04-.46,7.1-.78,10.43-.92,1.29-.05,2.38-.98,2.65-2.24h0s1.19-5.6,1.19-5.6h0c.27-1.27-.35-2.55-1.51-3.13-2.99-1.48-8.39-4.23-9.15-5.08-.87-.68-3.58-3.61-5.12-5.3-.69-.75-.91-1.81-.6-2.78h0s.84-2.59.84-2.59h0c.31-.97,1.12-1.69,2.12-1.9,2.24-.46,6.15-1.24,7.26-1.28,1.11-.24,7.1.72,10.39,1.27,1.28.22,2.54-.46,3.06-1.64h0s2.33-5.23,2.33-5.23h0c.53-1.18.19-2.57-.83-3.37-2.61-2.07-7.33-5.89-7.9-6.87-.71-.85-2.75-4.27-3.91-6.25-.51-.88-.52-1.96,0-2.85h0s1.36-2.36,1.36-2.36h0c.51-.88,1.45-1.42,2.47-1.42,2.29.01,6.27.07,7.36.26,1.14,0,6.8,2.18,9.9,3.4,1.2.48,2.58.08,3.34-.97h0s3.36-4.63,3.36-4.63h0c.76-1.05.72-2.48-.11-3.47-2.12-2.57-5.95-7.28-6.3-8.36-.52-.98-1.8-4.75-2.52-6.92-.32-.97-.1-2.03.58-2.79h0s1.82-2.03,1.82-2.03h0c.68-.76,1.72-1.09,2.71-.87,2.24.49,6.12,1.37,7.15,1.78,1.11.24,6.2,3.54,8.97,5.39,1.08.72,2.5.61,3.46-.25h0s4.25-3.83,4.25-3.83h0c.96-.87,1.21-2.27.62-3.42-1.54-2.95-4.3-8.36-4.42-9.49-.31-1.07-.77-5.02-1.03-7.3-.11-1.01.33-2.01,1.15-2.6h0s2.2-1.6,2.2-1.6h0c.82-.6,1.9-.71,2.83-.29,2.09.94,5.7,2.61,6.62,3.23,1.04.46,5.32,4.75,7.66,7.14.91.92,2.32,1.12,3.44.47h0s4.96-2.86,4.96-2.86h0c1.12-.65,1.66-1.97,1.31-3.22-.9-3.21-2.47-9.07-2.35-10.2-.08-1.11.29-5.07.51-7.35.1-1.01.74-1.89,1.67-2.31h0s2.49-1.11,2.49-1.11h0c.93-.41,2.01-.3,2.83.31,1.84,1.36,5.04,3.74,5.81,4.54.92.67,4.22,5.76,6.01,8.57.69,1.09,2.04,1.58,3.27,1.18h0s5.44-1.77,5.44-1.77h0c1.23-.4,2.03-1.58,1.95-2.87-.21-3.33-.53-9.38-.18-10.47.15-1.1,1.34-4.9,2.03-7.08.31-.97,1.11-1.7,2.11-1.91h0s2.67-.57,2.67-.57h0c1-.21,2.03.13,2.7.89,1.52,1.71,4.15,4.71,4.73,5.65.76.84,2.93,6.51,4.09,9.63.45,1.21,1.67,1.97,2.95,1.83h0s5.69-.6,5.69-.6h0c1.29-.14,2.32-1.12,2.51-2.4.49-3.3,1.43-9.29,2-10.27.38-1.04,2.33-4.52,3.46-6.51Z" fill="none" stroke="#ccc" stroke-linecap="round" stroke-linejoin="round" stroke-width=".71"/>
  </g>
</svg>